<?xml version="1.0" standalone="no"?>
<!DOCTYPE svg PUBLIC "-//W3C//DTD SVG 20010904//EN"
 "http://www.w3.org/TR/2001/REC-SVG-20010904/DTD/svg10.dtd">
<svg version="1.0" xmlns="http://www.w3.org/2000/svg"
 width="512.000000pt" height="512.000000pt" viewBox="0 0 512.000000 512.000000"
 preserveAspectRatio="xMidYMid meet">
<metadata>
Created by potrace 1.14, written by Peter Selinger 2001-2017
</metadata>
<g transform="translate(0.000000,512.000000) scale(0.100000,-0.100000)"
fill="#000000" stroke="none">
<path d="M958 4445 c-1 -1 -30 -6 -63 -9 -33 -4 -67 -9 -75 -11 -8 -2 -26 -6
-40 -9 -102 -19 -267 -90 -376 -162 -64 -43 -174 -146 -221 -209 -117 -156
-183 -363 -181 -573 1 -153 42 -370 88 -477 10 -22 23 -56 31 -75 41 -111 200
-399 262 -476 23 -28 35 -34 66 -34 46 0 87 29 95 68 3 15 8 72 11 127 3 55 8
116 11 135 2 19 7 53 9 75 20 184 69 322 138 393 115 118 287 112 383 -13 55
-72 64 -121 59 -315 -2 -96 -6 -184 -8 -195 -3 -11 -8 -49 -12 -85 -7 -65 -13
-113 -20 -160 -2 -14 -7 -52 -11 -85 -3 -33 -9 -64 -12 -69 -9 -16 -11 -321
-1 -386 41 -284 163 -484 349 -573 81 -39 105 -45 190 -53 91 -8 97 -12 134
-67 106 -159 280 -287 468 -345 79 -25 227 -52 280 -52 30 0 39 -5 56 -34 24
-40 80 -84 119 -94 15 -4 319 -7 675 -7 l648 0 26 26 c24 24 26 35 28 110 3
125 -9 184 -57 287 -6 13 -37 52 -68 86 -87 95 -196 146 -314 146 l-59 0 60
62 c104 107 148 177 189 298 31 90 37 133 39 245 l1 89 130 2 c141 2 161 4
323 34 59 11 121 23 137 25 17 3 84 8 150 11 166 7 181 10 205 44 18 26 21 42
19 139 -1 91 -5 118 -24 158 -46 99 -118 142 -249 149 -44 3 -93 9 -108 15
-49 20 -58 92 -16 127 10 8 66 13 154 16 289 9 464 92 523 250 15 41 19 74 18
171 -2 135 14 89 -134 375 -98 191 -182 286 -302 345 -46 22 -63 36 -67 55
-33 159 -98 300 -174 381 -44 47 -50 50 -91 47 -41 -3 -45 -6 -102 -83 -82
-113 -120 -172 -165 -256 -38 -70 -44 -76 -119 -119 -124 -70 -153 -93 -292
-231 -113 -112 -118 -113 -431 -111 -293 2 -394 -11 -600 -75 -137 -43 -444
-206 -458 -244 -2 -5 -8 -9 -13 -9 -6 0 -22 -11 -37 -25 -15 -14 -29 -25 -32
-25 -3 0 -7 37 -9 83 -9 286 -23 388 -77 540 -99 276 -325 488 -619 580 -44
13 -100 28 -125 32 -25 4 -54 9 -65 12 -24 5 -242 13 -247 8z"/>
</g>
</svg>
